<?xml version="1.0" encoding="utf-8"?>
<svg xmlns="http://www.w3.org/2000/svg" viewBox="0 0 500 500">
  <path d="M 129.712 243.979 C 126.56 243.979 123.855 242.772 121.574 240.36 C 119.294 237.947 118.155 235.045 118.155 231.661 C 118.155 228.276 119.292 225.374 121.574 222.961 C 123.856 220.549 126.565 219.341 129.712 219.341 C 132.629 219.296 135.44 220.518 137.515 222.735 L 135.32 225.11 C 133.818 223.539 131.801 222.674 129.71 222.706 C 127.436 222.706 125.503 223.574 123.919 225.323 C 122.361 226.997 121.503 229.286 121.544 231.662 C 121.544 234.149 122.332 236.258 123.919 238 C 125.426 239.711 127.527 240.66 129.71 240.617 C 132.027 240.617 133.94 239.813 135.464 238.149 C 136.356 237.184 136.95 235.737 137.158 233.911 L 129.716 233.911 L 129.716 230.546 L 140.188 230.546 C 140.3 231.144 140.337 231.833 140.337 232.637 C 140.337 235.944 139.44 238.566 137.642 240.511 C 135.602 242.819 132.959 243.969 129.696 243.969 L 129.712 243.979 Z M 154.048 241.727 C 152.621 243.239 150.881 243.979 148.827 243.979 C 146.772 243.979 145.03 243.223 143.606 241.727 C 142.182 240.231 141.468 238.328 141.468 236.065 C 141.468 233.802 142.182 231.915 143.606 230.403 C 145.03 228.891 146.772 228.151 148.827 228.151 C 150.881 228.151 152.624 228.907 154.048 230.403 C 155.472 231.899 156.186 233.806 156.186 236.065 C 156.186 238.323 155.472 240.215 154.048 241.727 Z M 145.91 239.507 C 146.661 240.389 147.721 240.886 148.828 240.873 C 149.958 240.873 150.93 240.419 151.747 239.506 C 152.563 238.592 152.969 237.447 152.969 236.063 C 152.969 234.664 152.567 233.509 151.76 232.605 C 150.953 231.701 149.979 231.254 148.828 231.254 C 147.719 231.236 146.653 231.727 145.897 232.605 C 145.09 233.506 144.688 234.657 144.688 236.063 C 144.688 237.443 145.094 238.593 145.91 239.506 L 145.91 239.507 Z M 170.102 241.727 C 168.675 243.239 166.935 243.979 164.881 243.979 C 162.826 243.979 161.084 243.223 159.66 241.727 C 158.236 240.231 157.522 238.328 157.522 236.065 C 157.522 233.802 158.236 231.915 159.66 230.403 C 161.084 228.891 162.826 228.151 164.881 228.151 C 166.935 228.151 168.678 228.907 170.102 230.403 C 171.526 231.899 172.24 233.806 172.24 236.065 C 172.24 238.323 171.526 240.215 170.102 241.727 Z M 161.964 239.507 C 162.715 240.389 163.775 240.886 164.882 240.873 C 166.012 240.873 166.984 240.419 167.801 239.506 C 168.617 238.592 169.023 237.447 169.023 236.063 C 169.023 234.664 168.621 233.509 167.814 232.605 C 167.007 231.701 166.033 231.254 164.882 231.254 C 163.773 231.236 162.707 231.727 161.951 232.605 C 161.144 233.506 160.742 234.657 160.742 236.063 C 160.742 237.443 161.148 238.593 161.964 239.506 L 161.964 239.507 Z M 180.655 251.121 C 179.028 251.121 177.657 250.648 176.546 249.705 C 175.436 248.763 174.641 247.672 174.159 246.427 L 176.966 245.168 C 177.26 245.93 177.709 246.591 178.353 247.153 C 178.996 247.714 179.75 247.992 180.66 247.992 C 181.882 247.992 182.842 247.59 183.534 246.791 C 184.225 245.991 184.574 244.835 184.574 243.332 L 184.574 242.206 L 184.463 242.206 C 183.571 243.408 182.267 244.011 180.603 244.011 C 178.733 244.011 177.095 243.239 175.687 241.698 C 174.306 240.226 173.542 238.204 173.576 236.107 C 173.542 233.996 174.305 231.961 175.687 230.472 C 177.092 228.923 178.735 228.144 180.603 228.144 C 181.436 228.144 182.191 228.313 182.866 228.656 C 183.541 228.998 184.075 229.418 184.463 229.915 L 184.574 229.915 L 184.574 228.638 L 187.631 228.638 L 187.631 242.885 C 187.631 245.652 186.979 247.717 185.671 249.094 C 184.363 250.461 182.695 251.153 180.657 251.153 L 180.655 251.121 Z M 180.878 240.871 C 181.952 240.892 182.978 240.39 183.672 239.506 C 184.421 238.593 184.796 237.458 184.796 236.092 C 184.796 234.712 184.421 233.557 183.672 232.634 C 182.98 231.741 181.955 231.234 180.878 231.254 C 179.749 231.254 178.785 231.717 177.991 232.634 C 177.198 233.551 176.796 234.706 176.796 236.092 C 176.796 237.453 177.193 238.593 177.991 239.506 C 178.79 240.418 179.75 240.873 180.878 240.873 L 180.878 240.871 Z M 193.072 220.177 L 193.072 243.501 L 189.85 243.501 L 189.85 220.177 L 193.072 220.177 Z M 201.902 243.977 C 199.827 243.977 198.096 243.215 196.708 241.693 C 195.319 240.171 194.624 238.289 194.624 236.044 C 194.624 233.721 195.293 231.813 196.637 230.333 C 197.912 228.883 199.69 228.075 201.539 228.107 C 202.427 228.107 203.254 228.281 204.012 228.633 C 204.718 228.945 205.359 229.405 205.9 229.984 C 206.352 230.47 206.753 231.011 207.095 231.591 C 207.379 232.088 207.621 232.611 207.817 233.155 L 208.152 234.056 L 198.349 238.45 C 199.092 240.052 200.282 240.855 201.905 240.855 C 203.386 240.855 204.591 240.126 205.515 238.663 L 208.012 240.467 C 207.455 241.368 206.67 242.181 205.651 242.901 C 204.633 243.622 203.38 243.979 201.899 243.979 L 201.902 243.977 Z M 197.82 235.806 L 204.361 232.862 C 204.174 232.36 203.835 231.955 203.32 231.646 C 202.803 231.332 202.219 231.173 201.626 231.183 C 200.68 231.183 199.797 231.601 198.975 232.442 C 198.153 233.284 197.756 234.408 197.793 235.807 L 197.82 235.806 Z M 225.07 243.977 C 222.141 243.977 219.688 242.906 217.708 240.76 C 215.728 238.614 214.735 235.943 214.735 232.737 C 214.735 229.531 215.725 226.856 217.708 224.713 C 219.691 222.571 222.142 221.496 225.07 221.496 C 228.068 221.496 230.505 222.67 232.373 225.011 L 230.597 226.877 C 229.259 225.053 227.401 224.142 225.067 224.142 C 222.896 224.142 221.074 224.934 219.566 226.518 C 218.059 228.102 217.33 230.173 217.33 232.737 C 217.33 235.301 218.074 237.376 219.566 238.962 C 221.059 240.548 222.886 241.338 225.067 241.338 C 227.454 241.338 229.492 240.295 231.162 238.214 L 232.938 240.136 C 232.008 241.338 230.839 242.298 229.519 242.946 C 228.12 243.643 226.595 243.995 225.053 243.979 L 225.07 243.977 Z M 237.789 243.501 L 235.232 243.501 L 235.232 221.983 L 237.789 221.983 L 237.789 243.501 Z M 241.956 230.536 C 243.272 229.045 244.929 228.295 246.984 228.295 C 249.038 228.295 250.696 229.043 252.012 230.536 C 253.327 232.029 253.984 233.914 253.984 236.142 C 253.984 238.37 253.33 240.255 252.012 241.748 C 250.693 243.241 249.038 243.989 246.984 243.989 C 244.929 243.989 243.272 243.241 241.956 241.748 C 240.64 240.255 239.983 238.37 239.983 236.142 C 239.983 233.914 240.637 232.029 241.956 230.536 Z M 243.859 239.999 C 244.751 240.969 245.783 241.457 246.981 241.457 C 248.179 241.457 249.211 240.969 250.103 239.999 C 250.995 239.029 251.423 237.739 251.423 236.139 C 251.423 234.538 250.981 233.247 250.103 232.278 C 249.224 231.31 248.179 230.821 246.981 230.821 C 245.783 230.821 244.751 231.308 243.859 232.278 C 242.967 233.248 242.539 234.538 242.539 236.139 C 242.539 237.739 242.98 239.031 243.859 239.999 Z M 268.121 243.501 L 265.675 243.501 L 265.675 241.458 L 265.564 241.458 C 265.177 242.158 264.582 242.756 263.787 243.228 C 262.992 243.699 262.152 243.968 261.26 243.968 C 259.555 243.968 258.266 243.408 257.387 242.283 C 256.509 241.159 256.067 239.657 256.067 237.775 L 256.067 228.757 L 258.624 228.757 L 258.624 237.321 C 258.624 240.069 259.744 241.439 261.984 241.439 C 263.002 241.462 263.967 240.947 264.568 240.059 C 265.229 239.152 265.581 238.027 265.567 236.872 L 265.567 228.757 L 268.124 228.757 L 268.124 243.487 L 268.121 243.501 Z M 276.785 243.979 C 275.026 243.979 273.505 243.226 272.23 241.724 C 270.954 240.221 270.315 238.359 270.315 236.132 C 270.315 233.906 270.954 232.043 272.23 230.541 C 273.505 229.039 275.027 228.286 276.785 228.286 C 277.819 228.286 278.753 228.527 279.579 229.005 C 280.406 229.483 281.021 230.086 281.427 230.81 L 281.539 230.81 L 281.427 228.767 L 281.427 221.979 L 283.984 221.979 L 283.984 243.501 L 281.539 243.501 L 281.539 241.458 L 281.427 241.458 C 281.021 242.177 280.406 242.781 279.579 243.263 C 278.754 243.736 277.821 243.977 276.785 243.977 L 276.785 243.979 Z M 277.201 241.453 C 278.368 241.471 279.486 240.945 280.271 240.011 C 281.114 239.05 281.534 237.755 281.534 236.15 C 281.534 234.545 281.115 233.234 280.271 232.29 C 279.486 231.355 278.368 230.829 277.201 230.847 C 276.015 230.847 274.996 231.334 274.144 232.304 C 273.293 233.274 272.869 234.564 272.869 236.165 C 272.869 237.765 273.293 239.057 274.144 240.025 C 274.923 240.963 276.037 241.494 277.201 241.482 L 277.201 241.453 Z" fill="#5f6368" style=""/>
</svg>