<?xml version="1.0" standalone="no"?>
<!DOCTYPE svg PUBLIC "-//W3C//DTD SVG 20010904//EN"
 "http://www.w3.org/TR/2001/REC-SVG-20010904/DTD/svg10.dtd">
<svg version="1.0" xmlns="http://www.w3.org/2000/svg"
 width="705.000000pt" height="601.000000pt" viewBox="0 0 705.000000 601.000000"
 preserveAspectRatio="xMidYMid meet">

<g transform="translate(0.000000,601.000000) scale(0.100000,-0.100000)"
fill="#000000" stroke="none">
<path d="M0 3005 l0 -3005 3525 0 3525 0 0 3005 0 3005 -3525 0 -3525 0 0
-3005z m3864 2825 c520 -79 1010 -299 1401 -630 105 -89 305 -294 385 -395
169 -213 348 -532 440 -785 56 -153 114 -384 141 -561 33 -208 33 -590 0 -798
-50 -326 -149 -628 -297 -911 -63 -120 -223 -363 -283 -430 l-40 -45 -1 50 c0
28 -7 86 -15 130 -9 46 -13 97 -9 123 5 35 2 49 -19 81 -43 64 -57 110 -57
180 0 129 -50 225 -145 279 -33 19 -105 61 -159 93 -128 76 -226 113 -408 154
-160 37 -159 36 -258 101 -72 46 -227 104 -280 104 -63 0 -89 25 -155 153 -25
48 -47 87 -49 87 -1 0 2 -23 8 -50 17 -84 -5 -201 -78 -420 -76 -228 -109
-355 -131 -500 -9 -58 -31 -199 -50 -315 -18 -115 -41 -262 -50 -325 -30 -211
-73 -446 -89 -485 -13 -30 -19 -35 -30 -26 -8 7 -16 31 -19 54 -2 23 -14 76
-25 117 -12 41 -45 170 -73 285 -28 116 -68 268 -90 339 -21 70 -39 132 -39
137 0 11 -238 494 -288 584 -22 39 -78 129 -126 202 -47 72 -86 134 -86 137 0
4 -22 41 -49 84 -107 171 -131 241 -106 311 8 24 13 46 11 49 -3 2 -19 -4 -36
-14 -34 -21 -49 -42 -144 -202 -46 -76 -77 -117 -97 -127 -16 -9 -112 -45
-214 -80 -131 -45 -203 -76 -246 -106 -63 -43 -193 -106 -264 -129 -113 -36
-451 -207 -510 -258 -79 -67 -109 -154 -112 -327 -1 -71 -2 -150 -3 -175 l0
-45 -41 63 c-188 293 -331 686 -390 1073 -33 208 -33 590 0 798 27 177 85 408
141 561 92 253 271 572 440 785 80 101 280 306 385 395 393 333 895 558 1407
630 201 28 208 28 448 25 153 -3 255 -10 354 -25z"/>
<path d="M3278 5366 c-159 -48 -341 -149 -429 -239 -67 -68 -176 -225 -210
-301 -32 -73 -39 -151 -23 -242 7 -44 14 -140 14 -214 1 -74 7 -169 14 -210
11 -62 11 -81 0 -107 -12 -31 -11 -33 16 -53 16 -11 34 -19 41 -18 14 3 20
-26 39 -167 6 -49 16 -109 21 -132 12 -56 11 -110 -2 -118 -7 -5 -3 -15 10
-29 27 -28 44 -80 66 -196 10 -52 26 -117 37 -144 16 -40 17 -50 6 -58 -10 -8
-9 -9 3 -5 12 4 24 -7 40 -38 19 -35 21 -48 12 -67 -9 -20 -8 -26 4 -34 13 -8
14 -14 4 -32 -12 -23 -31 -30 -31 -12 0 6 -4 10 -10 10 -5 0 -10 -7 -10 -15 0
-37 -22 -8 -44 58 -7 23 -26 22 -26 -3 0 -41 58 -142 130 -225 43 -51 303
-327 418 -445 60 -62 74 -83 138 -230 14 -30 31 -66 39 -80 38 -67 84 -163 90
-191 9 -41 20 -27 40 46 15 57 14 61 -5 87 -29 39 -25 77 11 117 20 20 28 36
21 40 -6 3 -13 18 -17 33 -4 15 -15 34 -26 44 -10 9 -19 23 -19 31 0 7 -4 13
-8 13 -5 0 -15 12 -22 28 -8 15 -19 34 -26 42 -6 8 -16 38 -23 65 -20 86 -29
100 -74 119 -93 38 -107 46 -107 62 0 22 -38 74 -55 74 -7 0 -15 3 -17 8 -6
13 -72 58 -113 77 -22 11 -56 31 -75 47 -19 16 -47 28 -62 28 -33 0 -35 15 -8
50 17 22 19 23 25 7 4 -9 14 -17 23 -17 8 0 12 -3 9 -6 -3 -4 -2 -15 4 -26 8
-14 18 -19 35 -15 19 3 24 1 20 -10 -4 -10 -1 -11 14 -3 28 15 53 13 47 -5 -4
-8 -2 -17 3 -20 6 -4 10 1 10 9 0 9 6 13 14 10 7 -3 16 2 20 12 5 13 9 14 21
4 12 -10 13 -16 4 -26 -9 -11 -8 -14 4 -14 15 0 31 26 22 39 -11 19 93 -19
116 -41 l25 -25 121 17 c70 9 132 24 147 33 33 22 39 21 31 -3 -6 -19 -4 -20
22 -14 15 4 29 11 31 15 9 22 45 58 53 54 5 -4 9 0 9 8 0 8 25 41 55 73 30 33
55 62 55 66 0 5 6 8 14 8 8 0 17 15 20 36 4 19 24 72 45 118 22 45 48 117 60
160 12 43 30 95 41 116 11 22 20 51 20 66 0 25 19 48 78 96 42 34 39 103 -4
103 -15 0 -20 -9 -22 -42 -3 -38 -25 -73 -38 -60 -10 9 16 115 32 127 17 15
19 46 3 56 -7 4 -9 24 -6 51 4 36 13 54 46 87 46 47 51 61 20 53 -18 -5 -20
-2 -15 19 4 15 2 24 -5 24 -8 0 -9 13 -5 40 7 42 -2 50 -27 25 -16 -16 -30
-85 -32 -160 -4 -166 -55 -395 -88 -395 -8 0 -26 -18 -41 -40 -14 -22 -33 -40
-41 -40 -8 0 -15 -6 -15 -12 0 -7 -10 -25 -23 -39 -12 -15 -35 -43 -51 -63
-15 -20 -33 -36 -40 -36 -16 0 -16 48 0 54 8 3 14 12 14 19 0 8 10 26 21 41
17 22 20 36 16 74 -4 39 -12 53 -43 79 -27 24 -43 31 -60 27 -15 -4 -34 1 -52
15 -16 11 -32 17 -36 14 -4 -4 -9 3 -13 15 -3 12 -10 22 -15 22 -5 0 -7 9 -3
19 9 30 -12 35 -49 12 -18 -12 -45 -21 -60 -21 -15 0 -37 -7 -50 -15 -25 -17
-51 -12 -60 10 -3 8 -22 17 -43 21 -47 8 -64 21 -56 42 6 15 4 15 -10 4 -14
-12 -21 -11 -46 1 -29 15 -32 10 -17 -25 12 -26 -33 -79 -62 -74 -12 2 -25 0
-27 -5 -3 -4 -20 -3 -37 2 -26 7 -38 4 -74 -18 -23 -15 -40 -32 -37 -39 2 -7
0 -15 -6 -19 -14 -8 -14 -72 -1 -80 13 -8 27 -106 21 -155 0 -5 -14 -10 -31
-10 -16 0 -30 -5 -30 -11 0 -8 -5 -7 -16 2 -12 9 -15 24 -11 51 5 41 -2 47
-27 23 -19 -19 -23 -19 -28 3 -3 10 3 28 13 41 10 13 15 29 12 39 -5 12 -9 8
-15 -16 -6 -22 -14 -32 -28 -32 -24 0 -25 8 -6 36 9 12 11 26 6 33 -10 17 -30
-16 -31 -51 -1 -20 -3 -18 -16 12 -9 19 -20 55 -25 80 -18 92 -20 100 -28 100
-14 0 -58 101 -81 186 -28 104 -24 288 8 353 11 23 16 41 11 41 -16 0 -63 -28
-82 -49 -27 -29 -46 -27 -46 7 0 39 24 68 82 100 80 43 85 46 134 91 33 29 52
40 65 36 14 -5 22 0 28 17 12 31 7 33 -29 18 -29 -12 -66 -39 -111 -82 -25
-24 -24 -4 3 43 18 32 24 36 40 28 14 -7 18 -6 18 5 0 8 6 16 12 18 9 3 8 9
-5 22 -21 22 -21 30 -1 61 9 14 17 39 19 56 1 17 8 35 15 39 7 4 9 13 6 19
-13 20 4 53 25 48 10 -3 22 -1 25 5 3 5 12 7 19 4 7 -2 18 1 24 7 6 6 12 8 12
4 1 -4 3 -16 4 -27 4 -34 5 -35 16 -20 8 11 9 6 5 -20 -4 -21 -3 -28 2 -17 7
17 9 17 18 -5 13 -28 2 -74 -16 -70 -11 3 -11 0 0 -12 8 -10 9 -16 2 -16 -6 0
-9 -7 -6 -15 4 -8 10 -12 15 -9 5 3 9 1 9 -4 0 -16 -30 -23 -68 -16 l-35 7 6
-48 c6 -41 5 -48 -13 -52 -11 -3 -20 -8 -20 -12 0 -4 -9 -17 -21 -30 -12 -12
-19 -23 -18 -25 4 -2 131 -14 404 -37 108 -9 122 -12 147 -36 25 -24 32 -25
83 -19 57 6 72 -4 35 -24 -16 -8 -18 -17 -14 -50 6 -40 6 -40 -28 -40 -41 -1
-63 -17 -64 -50 -2 -26 -88 -162 -123 -194 -12 -11 -21 -28 -21 -38 0 -18 1
-18 31 3 17 12 39 41 49 64 10 23 29 52 41 64 23 22 69 29 69 11 0 -5 -6 -9
-12 -7 -8 1 -13 -8 -13 -23 1 -17 6 -25 18 -24 9 1 17 -5 17 -13 0 -26 23 -8
36 28 16 43 17 86 3 94 -12 8 -3 63 14 83 8 11 12 11 18 0 13 -20 10 -38 -6
-38 -8 0 -15 -4 -15 -9 0 -15 18 -23 25 -11 14 23 24 -4 21 -58 -1 -33 3 -68
11 -84 17 -35 17 -38 -8 -38 -11 0 -17 -4 -14 -10 3 -5 12 -10 20 -10 8 0 31
-16 52 -35 39 -36 53 -42 53 -24 0 5 -4 8 -9 5 -5 -3 -11 6 -14 19 -4 25 -4
25 14 9 11 -10 19 -12 19 -6 0 7 -4 12 -10 12 -5 0 -10 7 -10 15 0 8 -6 12
-13 9 -16 -6 -41 76 -32 106 6 20 8 19 36 -11 18 -19 29 -42 29 -60 0 -30 13
-36 40 -19 13 8 12 10 -3 10 -27 0 -32 29 -9 50 23 21 29 17 27 -16 -2 -18 3
-21 43 -20 27 1 47 6 50 14 2 6 -1 12 -8 12 -6 0 -20 9 -32 20 -12 11 -28 19
-36 18 -19 -4 -23 49 -5 56 17 7 43 -3 43 -16 0 -6 6 -6 14 2 11 8 12 18 6 36
-8 19 -6 26 5 29 50 16 48 14 31 31 -9 8 -16 19 -16 24 0 4 -8 11 -17 15 -34
14 -168 34 -188 29 -18 -6 -19 -5 -5 10 28 29 236 50 325 33 30 -5 36 -5 23 3
-10 6 -70 15 -135 21 -65 6 -122 12 -128 14 -5 3 58 4 141 2 195 -2 208 5 126
72 -101 83 -134 100 -165 87 -20 -8 -24 -14 -17 -26 9 -13 10 -13 10 0 1 11 4
10 15 -4 8 -11 15 -23 15 -28 0 -12 -115 -9 -127 3 -9 9 -16 8 -28 -5 -20 -20
-35 -21 -35 -1 0 21 -19 19 -26 -2 -20 -63 -26 -69 -69 -82 -61 -18 -128 -7
-183 31 -24 16 -46 36 -48 43 -6 14 -34 26 -79 31 -16 2 -37 7 -45 10 -8 4
-38 6 -65 5 -31 -2 -66 5 -91 16 -36 16 -40 21 -33 41 5 12 12 22 16 22 5 0
13 10 18 23 6 12 17 23 25 23 8 1 24 2 35 3 17 1 18 3 5 11 -20 13 -4 13 21
-1 14 -7 35 -7 65 -1 35 8 44 7 44 -4 0 -8 5 -14 10 -14 6 0 10 6 10 13 0 9
14 14 41 15 34 2 40 -1 35 -14 -5 -12 -2 -15 10 -10 37 14 62 17 68 7 4 -5 13
-8 21 -4 8 3 15 0 15 -6 0 -6 -5 -11 -11 -11 -5 0 -7 -5 -4 -10 4 -6 15 -8 26
-5 12 4 19 2 19 -7 0 -12 44 -15 134 -9 20 1 20 1 0 16 -16 12 -17 14 -2 15 9
0 24 3 34 7 10 4 15 2 11 -3 -3 -6 10 -11 30 -11 20 -1 40 -7 45 -15 7 -10 10
-10 19 5 5 9 18 17 27 17 13 0 14 -2 4 -9 -20 -12 11 -22 48 -15 l29 6 -22 19
-22 18 22 1 c12 0 27 -8 32 -17 10 -17 10 -17 11 0 0 11 -9 21 -20 24 -21 6
-35 36 -25 53 3 5 1 10 -4 10 -6 0 -10 3 -10 8 3 20 -2 32 -14 32 -15 0 -50
34 -42 41 2 3 -7 6 -20 7 -14 1 -25 -2 -25 -7 0 -5 -9 -7 -19 -4 -16 4 -19 1
-14 -16 3 -12 10 -21 17 -22 6 -1 0 -4 -14 -8 -14 -4 -33 -3 -42 3 -16 10 -16
12 -1 28 15 17 15 18 -1 18 -22 0 -43 21 -48 46 -2 10 -7 22 -12 25 -10 8 1
29 15 29 6 0 8 -4 4 -9 -9 -16 30 -22 61 -11 15 6 39 8 52 5 19 -5 23 -10 18
-30 -3 -13 -2 -27 4 -30 5 -3 11 4 12 17 0 13 2 28 3 33 2 6 3 15 4 20 1 6 8
2 16 -9 10 -14 21 -17 42 -12 15 4 23 3 18 -1 -15 -12 -13 -27 9 -48 15 -15
22 -16 37 -7 26 16 31 15 27 -5 -5 -24 51 -61 63 -42 8 13 11 9 25 -38 2 -7
-2 -13 -8 -13 -7 0 -7 -4 0 -12 5 -7 12 -49 14 -93 4 -71 9 -87 41 -140 21
-32 36 -64 34 -70 -5 -12 23 -34 43 -35 9 0 32 -11 52 -25 20 -14 39 -25 42
-25 11 0 26 78 26 132 0 32 9 101 21 153 18 81 19 103 10 141 -23 89 -53 138
-138 221 l-85 81 12 75 c13 85 4 139 -30 187 -31 43 -314 183 -402 199 -35 6
-97 24 -138 41 -96 38 -189 39 -302 6z m437 -636 c3 -5 2 -10 -4 -10 -5 0 -13
5 -16 10 -3 6 -2 10 4 10 5 0 13 -4 16 -10z m-92 -30 c-3 -12 0 -20 6 -20 7 0
10 4 6 9 -3 5 -1 12 5 16 5 3 10 -1 10 -9 0 -9 5 -16 11 -16 8 0 10 -12 6 -34
-3 -19 -3 -37 1 -40 13 -13 11 -46 -2 -46 -18 0 -28 27 -13 34 7 2 5 5 -4 5
-32 2 -35 51 -3 51 8 0 13 4 10 9 -10 15 -60 10 -93 -10 -18 -10 -33 -14 -33
-9 0 6 -9 10 -21 10 -27 0 -20 18 16 44 18 14 29 17 32 9 3 -8 11 -7 31 3 36
19 41 18 35 -6z m207 10 c0 -5 -4 -10 -10 -10 -5 0 -10 5 -10 10 0 6 5 10 10
10 6 0 10 -4 10 -10z m-587 -50 c-3 -12 -8 -19 -11 -16 -5 6 5 36 12 36 2 0 2
-9 -1 -20z m352 -26 c-9 -9 -19 -13 -23 -10 -3 4 0 11 8 16 24 15 33 11 15 -6z
m-390 -14 c3 -5 -1 -10 -10 -10 -9 0 -13 5 -10 10 3 6 8 10 10 10 2 0 7 -4 10
-10z m-77 -18 c2 -7 -3 -12 -12 -12 -9 0 -16 7 -16 16 0 17 22 14 28 -4z m425
-2 c10 0 16 -4 12 -10 -8 -12 -48 3 -53 21 -4 11 -2 12 9 2 7 -7 21 -13 32
-13z m497 8 c0 -4 -9 -8 -21 -8 -11 0 -18 4 -15 8 3 5 12 9 21 9 8 0 15 -4 15
-9z m-190 -27 c0 -6 -4 -13 -10 -16 -5 -3 -10 -2 -10 4 0 5 -8 12 -17 14 -11
3 -7 5 10 6 15 0 27 -3 27 -8z m-137 -38 c-7 -2 -19 -2 -25 0 -7 3 -2 5 12 5
14 0 19 -2 13 -5z m-33 -57 c0 -3 -4 -8 -10 -11 -5 -3 -10 -1 -10 4 0 6 5 11
10 11 6 0 10 -2 10 -4z m-795 -86 c3 -5 -1 -10 -9 -10 -9 0 -16 5 -16 10 0 6
4 10 9 10 6 0 13 -4 16 -10z m875 -214 c0 -2 -7 -9 -15 -16 -13 -11 -14 -10
-9 4 5 14 24 23 24 12z m-70 -17 c0 -5 5 -7 10 -4 6 3 10 -1 10 -9 0 -9 -4
-16 -8 -16 -5 0 -16 -18 -26 -40 -16 -37 -36 -53 -36 -30 0 6 -7 10 -15 10
-27 0 -17 46 16 74 32 28 49 33 49 15z m50 -79 c0 -5 -7 -10 -15 -10 -8 0 -15
5 -15 10 0 6 7 10 15 10 8 0 15 -4 15 -10z m-40 -35 c0 -8 -4 -15 -9 -15 -13
0 -22 16 -14 24 11 11 23 6 23 -9z m110 -41 c0 -8 -5 -12 -10 -9 -6 4 -8 11
-5 16 9 14 15 11 15 -7z m-266 -63 c3 -4 -6 -6 -19 -3 -14 2 -25 6 -25 8 0 8
39 4 44 -5z m41 -11 c-3 -5 -11 -10 -16 -10 -6 0 -7 5 -4 10 3 6 11 10 16 10
6 0 7 -4 4 -10z m-25 -461 c9 -16 14 -18 25 -9 10 8 16 7 24 -7 9 -15 12 -15
20 -4 5 7 14 10 20 6 7 -4 18 -2 26 5 7 6 29 10 47 8 29 -3 33 -7 36 -35 3
-30 -11 -47 -20 -24 -6 16 -219 36 -352 34 -161 -3 -161 16 0 24 59 3 117 9
128 13 31 13 34 12 46 -11z m-66 -66 c4 -5 52 -8 107 -8 74 0 102 -4 108 -14
5 -7 14 -10 20 -7 6 4 11 5 11 1 0 -3 -10 -10 -22 -15 -21 -8 -22 -9 -3 -10
11 -1 37 -2 58 -2 28 0 37 -4 33 -14 -3 -8 1 -14 8 -14 8 0 16 -6 19 -14 7
-18 -27 -112 -49 -137 -9 -10 -14 -25 -11 -33 12 -30 -32 -24 -68 10 -20 19
-43 34 -51 34 -8 0 -15 6 -15 13 -3 27 4 52 14 59 14 8 12 10 -33 31 -37 16
-202 30 -253 20 -30 -6 -33 -15 -14 -35 6 -7 18 -25 26 -41 18 -34 7 -48 -43
-50 -27 -2 -36 -6 -36 -19 0 -23 -5 -23 -40 4 -20 15 -30 30 -30 48 0 15 -9
35 -20 45 -12 11 -20 13 -20 6 0 -8 -8 -6 -23 5 l-22 17 28 33 c27 30 32 31
61 22 17 -6 37 -15 44 -21 7 -5 16 -7 20 -3 4 4 -3 16 -15 26 -18 14 -20 20
-10 28 9 8 33 5 82 -9 63 -17 118 -21 70 -4 -50 17 -85 36 -85 45 0 12 143 14
154 3z m-547 -85 c-3 -8 -6 -5 -6 6 -1 11 2 17 5 13 3 -3 4 -12 1 -19z m848
-168 c3 -5 1 -10 -4 -10 -6 0 -11 5 -11 10 0 6 2 10 4 10 3 0 8 -4 11 -10z
m-288 -49 c10 -16 8 -22 -8 -37 -18 -17 -19 -16 -19 19 0 41 9 47 27 18z
m-547 -151 c0 -5 -2 -10 -4 -10 -3 0 -8 5 -11 10 -3 6 -1 10 4 10 6 0 11 -4
11 -10z m-30 -50 c0 -5 -9 -6 -20 -3 -11 3 -20 9 -20 13 0 5 9 6 20 3 11 -3
20 -9 20 -13z m70 -24 c0 -8 7 -17 16 -20 24 -9 10 -19 -31 -22 -34 -3 -48 9
-22 19 7 3 5 6 -5 6 -32 2 -20 31 12 31 19 0 30 -5 30 -14z"/>
<path d="M3642 4124 c-13 -14 -9 -34 8 -34 12 0 22 32 13 41 -4 4 -14 1 -21
-7z"/>
<path d="M3740 4630 c0 -5 9 -10 21 -10 11 0 17 5 14 10 -3 6 -13 10 -21 10
-8 0 -14 -4 -14 -10z"/>
<path d="M4010 4540 c20 -13 33 -13 25 0 -3 6 -14 10 -23 10 -15 0 -15 -2 -2
-10z"/>
<path d="M3945 4490 c4 -6 11 -8 16 -5 14 9 11 15 -7 15 -8 0 -12 -5 -9 -10z"/>
<path d="M3480 4449 c0 -5 5 -7 10 -4 6 3 10 8 10 11 0 2 -4 4 -10 4 -5 0 -10
-5 -10 -11z"/>
<path d="M2930 4439 c0 -5 5 -7 10 -4 6 3 10 8 10 11 0 2 -4 4 -10 4 -5 0 -10
-5 -10 -11z"/>
<path d="M3660 4250 c0 -5 5 -10 10 -10 6 0 10 5 10 10 0 6 -4 10 -10 10 -5 0
-10 -4 -10 -10z"/>
<path d="M2840 4234 c0 -8 5 -12 10 -9 6 4 8 11 5 16 -9 14 -15 11 -15 -7z"/>
<path d="M2996 4231 c-9 -13 17 -20 104 -26 41 -3 91 -9 110 -14 l35 -9 -42
-1 c-31 -1 -43 -5 -43 -16 0 -9 -9 -15 -25 -15 -17 0 -29 -9 -40 -29 -8 -16
-24 -32 -35 -36 -24 -8 -27 -40 -3 -49 9 -4 43 -9 75 -13 32 -3 62 -11 68 -18
17 -21 -17 -39 -68 -37 -57 3 -88 -12 -46 -22 15 -4 39 -20 55 -37 26 -28 49
-38 49 -21 0 4 16 8 36 9 20 1 43 8 53 17 9 8 19 15 24 15 14 1 39 18 38 27 0
5 5 10 12 10 6 1 17 3 22 4 6 1 14 2 18 1 5 -1 11 8 14 19 3 11 10 20 15 20 6
0 7 8 3 18 -5 13 -4 14 6 5 15 -14 39 0 39 23 0 16 -16 19 -25 4 -12 -20 -80
28 -96 68 -5 12 -20 27 -33 32 -30 11 -47 34 -20 27 83 -23 98 -16 32 12 -30
13 -81 21 -168 26 -69 3 -132 8 -142 11 -9 3 -19 0 -22 -5z m144 -161 c18 -18
19 -21 4 -27 -19 -7 -49 20 -40 36 10 15 13 14 36 -9z"/>
<path d="M2877 4210 c3 -11 7 -20 9 -20 2 0 4 9 4 20 0 11 -4 20 -9 20 -5 0
-7 -9 -4 -20z"/>
<path d="M2830 4180 c0 -6 7 -10 15 -10 8 0 15 2 15 4 0 2 -7 6 -15 10 -8 3
-15 1 -15 -4z"/>
<path d="M2950 4155 c-7 -9 -8 -15 -2 -15 5 0 12 7 16 15 3 8 4 15 2 15 -2 0
-9 -7 -16 -15z"/>
<path d="M3531 4121 c-16 -4 -25 -15 -28 -31 -3 -19 -1 -22 9 -12 6 6 20 12
29 12 21 0 35 18 23 29 -5 5 -20 5 -33 2z"/>
<path d="M4108 4065 c2 -25 8 -45 14 -45 12 0 6 82 -7 87 -6 2 -9 -15 -7 -42z"/>
<path d="M4210 4050 c0 -19 3 -21 12 -12 9 9 9 15 0 24 -9 9 -12 7 -12 -12z"/>
<path d="M3000 4019 c0 -5 5 -7 10 -4 6 3 10 8 10 11 0 2 -4 4 -10 4 -5 0 -10
-5 -10 -11z"/>
<path d="M3970 4005 c9 -10 6 -15 -9 -20 -21 -6 -29 -25 -12 -25 18 0 61 19
61 27 0 5 -12 13 -26 20 -21 10 -24 10 -14 -2z"/>
<path d="M3416 3928 c-15 -29 -32 -61 -38 -70 -19 -27 -1 -33 21 -7 21 26 56
117 48 125 -3 3 -17 -19 -31 -48z"/>
<path d="M3306 3893 c-6 -14 -5 -15 5 -6 7 7 10 15 7 18 -3 3 -9 -2 -12 -12z"/>
<path d="M3230 3866 c0 -9 5 -16 10 -16 6 0 10 4 10 9 0 6 -4 13 -10 16 -5 3
-10 -1 -10 -9z"/>
<path d="M3260 3861 c0 -9 33 -21 58 -21 6 0 12 7 12 15 0 10 -11 15 -35 15
-19 0 -35 -4 -35 -9z"/>
<path d="M3500 3850 c8 -5 22 -10 30 -10 13 0 13 1 0 10 -8 5 -22 10 -30 10
-13 0 -13 -1 0 -10z"/>
<path d="M3470 3840 c0 -5 5 -10 11 -10 5 0 7 5 4 10 -3 6 -8 10 -11 10 -2 0
-4 -4 -4 -10z"/>
<path d="M3450 3810 c0 -5 4 -10 9 -10 6 0 13 5 16 10 3 6 -1 10 -9 10 -9 0
-16 -4 -16 -10z"/>
<path d="M2625 3710 c-13 -21 7 -50 52 -74 46 -26 83 -34 83 -17 0 18 -52 71
-70 71 -10 0 -25 7 -34 15 -17 18 -23 19 -31 5z"/>
<path d="M3450 3695 c0 -8 6 -15 14 -15 7 0 19 7 26 15 11 13 8 15 -14 15 -16
0 -26 -5 -26 -15z"/>
<path d="M3634 3695 c-18 -13 -17 -14 9 -20 35 -9 54 6 28 22 -15 9 -23 9 -37
-2z"/>
<path d="M4040 3430 c0 -5 4 -10 9 -10 6 0 13 5 16 10 3 6 -1 10 -9 10 -9 0
-16 -4 -16 -10z"/>
<path d="M2885 3059 c4 -16 2 -30 -4 -34 -12 -7 -5 -25 9 -25 5 0 7 7 4 15 -4
9 0 15 10 15 21 0 20 6 -5 33 l-20 22 6 -26z"/>
<path d="M2898 2983 c7 -3 16 -2 19 1 4 3 -2 6 -13 5 -11 0 -14 -3 -6 -6z"/>
<path d="M3190 2759 c0 -5 5 -7 10 -4 6 3 10 8 10 11 0 2 -4 4 -10 4 -5 0 -10
-5 -10 -11z"/>
<path d="M3990 2703 c-14 -25 -34 -51 -45 -57 -31 -18 -42 -30 -37 -45 3 -10
0 -11 -13 -4 -9 6 -28 8 -41 5 -23 -4 -23 -5 -7 -18 17 -13 17 -13 -2 -14 -17
0 -17 -2 -5 -10 11 -7 18 -5 27 6 8 11 18 14 30 9 17 -8 17 -8 0 -12 -9 -3
-14 -9 -11 -15 4 -6 1 -14 -7 -19 -7 -4 -14 -25 -14 -46 -2 -41 -32 -130 -52
-151 -13 -13 -17 -32 -9 -32 30 0 154 221 189 335 15 49 29 115 24 115 -1 0
-13 -21 -27 -47z"/>
<path d="M3326 2723 c-6 -14 -5 -15 5 -6 7 7 10 15 7 18 -3 3 -9 -2 -12 -12z"/>
<path d="M3790 2580 c0 -5 7 -10 15 -10 8 0 15 5 15 10 0 6 -7 10 -15 10 -8 0
-15 -4 -15 -10z"/>
<path d="M3708 2523 c6 -2 18 -2 25 0 6 3 1 5 -13 5 -14 0 -19 -2 -12 -5z"/>
<path d="M3690 2484 c0 -9 5 -14 12 -12 18 6 21 28 4 28 -9 0 -16 -7 -16 -16z"/>
<path d="M3747 2221 c-19 -32 -22 -51 -8 -51 11 0 34 55 29 70 -2 6 -11 -2
-21 -19z"/>
</g>
</svg>
